<mxfile host="app.diagrams.net" modified="2023-10-09T02:03:53.194Z" agent="Mozilla/5.0 (Macintosh; Intel Mac OS X 10_15_7) AppleWebKit/537.36 (KHTML, like Gecko) Chrome/117.0.0.0 Safari/537.36" etag="wxHw2OuVgnsNPTSS9MP9" version="22.0.3" type="github">
  <diagram name="第 1 页" id="MvdU9vE_efcbWYPii1YB">
    <mxGraphModel dx="2419" dy="2075" grid="1" gridSize="10" guides="1" tooltips="1" connect="1" arrows="1" fold="1" page="1" pageScale="1" pageWidth="827" pageHeight="1169" math="0" shadow="0">
      <root>
        <mxCell id="0" />
        <mxCell id="1" parent="0" />
        <mxCell id="gjb1ApcVUccVJ8jpi1Ft-1" value="" style="rounded=0;whiteSpace=wrap;html=1;dashed=1;" vertex="1" parent="1">
          <mxGeometry x="-230" y="130" width="340" height="410" as="geometry" />
        </mxCell>
        <mxCell id="gjb1ApcVUccVJ8jpi1Ft-16" style="edgeStyle=orthogonalEdgeStyle;rounded=0;orthogonalLoop=1;jettySize=auto;html=1;entryX=1;entryY=0.5;entryDx=0;entryDy=0;" edge="1" parent="1" source="-tx-H3IxzFD-GK6V4EGE-24" target="gjb1ApcVUccVJ8jpi1Ft-15">
          <mxGeometry relative="1" as="geometry">
            <Array as="points">
              <mxPoint x="1030" y="280" />
              <mxPoint x="1030" y="280" />
            </Array>
          </mxGeometry>
        </mxCell>
        <mxCell id="-tx-H3IxzFD-GK6V4EGE-24" value="" style="rounded=0;whiteSpace=wrap;html=1;" parent="1" vertex="1">
          <mxGeometry x="1050" y="125" width="230" height="350" as="geometry" />
        </mxCell>
        <mxCell id="-tx-H3IxzFD-GK6V4EGE-22" value="" style="rounded=0;whiteSpace=wrap;html=1;" parent="1" vertex="1">
          <mxGeometry x="145" y="135" width="230" height="350" as="geometry" />
        </mxCell>
        <mxCell id="-tx-H3IxzFD-GK6V4EGE-32" style="edgeStyle=orthogonalEdgeStyle;rounded=0;orthogonalLoop=1;jettySize=auto;html=1;exitX=0.003;exitY=0.426;exitDx=0;exitDy=0;exitPerimeter=0;" parent="1" source="-tx-H3IxzFD-GK6V4EGE-16" target="-tx-H3IxzFD-GK6V4EGE-3" edge="1">
          <mxGeometry relative="1" as="geometry">
            <mxPoint x="375" y="290" as="targetPoint" />
          </mxGeometry>
        </mxCell>
        <mxCell id="gjb1ApcVUccVJ8jpi1Ft-10" style="rounded=0;orthogonalLoop=1;jettySize=auto;html=1;entryX=1;entryY=0.5;entryDx=0;entryDy=0;" edge="1" parent="1" source="-tx-H3IxzFD-GK6V4EGE-16" target="-tx-H3IxzFD-GK6V4EGE-2">
          <mxGeometry relative="1" as="geometry" />
        </mxCell>
        <mxCell id="gjb1ApcVUccVJ8jpi1Ft-12" style="rounded=0;orthogonalLoop=1;jettySize=auto;html=1;entryX=1;entryY=0.5;entryDx=0;entryDy=0;" edge="1" parent="1" source="-tx-H3IxzFD-GK6V4EGE-16" target="gjb1ApcVUccVJ8jpi1Ft-3">
          <mxGeometry relative="1" as="geometry" />
        </mxCell>
        <mxCell id="gjb1ApcVUccVJ8jpi1Ft-13" style="rounded=0;orthogonalLoop=1;jettySize=auto;html=1;" edge="1" parent="1" source="-tx-H3IxzFD-GK6V4EGE-16" target="-tx-H3IxzFD-GK6V4EGE-4">
          <mxGeometry relative="1" as="geometry" />
        </mxCell>
        <mxCell id="gjb1ApcVUccVJ8jpi1Ft-14" style="rounded=0;orthogonalLoop=1;jettySize=auto;html=1;" edge="1" parent="1" source="-tx-H3IxzFD-GK6V4EGE-16" target="-tx-H3IxzFD-GK6V4EGE-5">
          <mxGeometry relative="1" as="geometry" />
        </mxCell>
        <mxCell id="-tx-H3IxzFD-GK6V4EGE-16" value="" style="rounded=0;whiteSpace=wrap;html=1;" parent="1" vertex="1">
          <mxGeometry x="470" y="130" width="230" height="350" as="geometry" />
        </mxCell>
        <mxCell id="gjb1ApcVUccVJ8jpi1Ft-8" style="edgeStyle=orthogonalEdgeStyle;rounded=0;orthogonalLoop=1;jettySize=auto;html=1;entryX=1;entryY=0.5;entryDx=0;entryDy=0;" edge="1" parent="1" source="-tx-H3IxzFD-GK6V4EGE-2" target="gjb1ApcVUccVJ8jpi1Ft-4">
          <mxGeometry relative="1" as="geometry" />
        </mxCell>
        <mxCell id="-tx-H3IxzFD-GK6V4EGE-2" value="Shopee NPM" style="rounded=1;whiteSpace=wrap;html=1;fillColor=#dae8fc;strokeColor=#6c8ebf;" parent="1" vertex="1">
          <mxGeometry x="190" y="180" width="120" height="60" as="geometry" />
        </mxCell>
        <mxCell id="gjb1ApcVUccVJ8jpi1Ft-9" style="edgeStyle=orthogonalEdgeStyle;rounded=0;orthogonalLoop=1;jettySize=auto;html=1;entryX=1;entryY=0.5;entryDx=0;entryDy=0;" edge="1" parent="1" source="-tx-H3IxzFD-GK6V4EGE-3" target="gjb1ApcVUccVJ8jpi1Ft-5">
          <mxGeometry relative="1" as="geometry" />
        </mxCell>
        <mxCell id="-tx-H3IxzFD-GK6V4EGE-3" value="Shopee PYPI" style="rounded=1;whiteSpace=wrap;html=1;fillColor=#dae8fc;strokeColor=#6c8ebf;" parent="1" vertex="1">
          <mxGeometry x="190" y="250" width="120" height="60" as="geometry" />
        </mxCell>
        <mxCell id="-tx-H3IxzFD-GK6V4EGE-4" value="Official GOPROXY" style="rounded=1;whiteSpace=wrap;html=1;fillColor=#dae8fc;strokeColor=#6c8ebf;" parent="1" vertex="1">
          <mxGeometry x="-80" y="390" width="120" height="60" as="geometry" />
        </mxCell>
        <mxCell id="-tx-H3IxzFD-GK6V4EGE-5" value="Official MAVEN" style="rounded=1;whiteSpace=wrap;html=1;fillColor=#dae8fc;strokeColor=#6c8ebf;" parent="1" vertex="1">
          <mxGeometry x="-80" y="460" width="120" height="60" as="geometry" />
        </mxCell>
        <mxCell id="-tx-H3IxzFD-GK6V4EGE-6" value="Proxy Repo" style="rounded=1;whiteSpace=wrap;html=1;fillColor=#ffe6cc;strokeColor=#d79b00;" parent="1" vertex="1">
          <mxGeometry x="526" y="300" width="120" height="60" as="geometry" />
        </mxCell>
        <mxCell id="-tx-H3IxzFD-GK6V4EGE-8" value="Jenkins" style="rounded=1;whiteSpace=wrap;html=1;fillColor=#f5f5f5;fontColor=#333333;strokeColor=#666666;" parent="1" vertex="1">
          <mxGeometry x="1110" y="185" width="120" height="60" as="geometry" />
        </mxCell>
        <mxCell id="-tx-H3IxzFD-GK6V4EGE-9" value="Mac Mini" style="rounded=1;whiteSpace=wrap;html=1;fillColor=#f5f5f5;fontColor=#333333;strokeColor=#666666;" parent="1" vertex="1">
          <mxGeometry x="1110" y="275" width="120" height="60" as="geometry" />
        </mxCell>
        <mxCell id="-tx-H3IxzFD-GK6V4EGE-17" value="Nexus Repository Manager" style="text;html=1;strokeColor=none;fillColor=none;align=center;verticalAlign=middle;whiteSpace=wrap;rounded=0;" parent="1" vertex="1">
          <mxGeometry x="505" y="150" width="160" height="20" as="geometry" />
        </mxCell>
        <mxCell id="-tx-H3IxzFD-GK6V4EGE-18" value="Blacklist" style="rounded=1;whiteSpace=wrap;html=1;fillColor=#ffe6cc;strokeColor=#d79b00;" parent="1" vertex="1">
          <mxGeometry x="525" y="395" width="120" height="60" as="geometry" />
        </mxCell>
        <mxCell id="-tx-H3IxzFD-GK6V4EGE-19" value="Hosted Repo" style="rounded=1;whiteSpace=wrap;html=1;fillColor=#ffe6cc;strokeColor=#d79b00;" parent="1" vertex="1">
          <mxGeometry x="525" y="210" width="120" height="60" as="geometry" />
        </mxCell>
        <mxCell id="-tx-H3IxzFD-GK6V4EGE-21" value="Client Side" style="text;html=1;strokeColor=none;fillColor=none;align=center;verticalAlign=middle;whiteSpace=wrap;rounded=0;" parent="1" vertex="1">
          <mxGeometry x="1081" y="150" width="160" height="20" as="geometry" />
        </mxCell>
        <mxCell id="-tx-H3IxzFD-GK6V4EGE-23" value="Private Registry" style="text;html=1;strokeColor=none;fillColor=none;align=center;verticalAlign=middle;whiteSpace=wrap;rounded=0;" parent="1" vertex="1">
          <mxGeometry x="180" y="150" width="160" height="20" as="geometry" />
        </mxCell>
        <mxCell id="-tx-H3IxzFD-GK6V4EGE-25" value="..." style="rounded=1;whiteSpace=wrap;html=1;fillColor=#f5f5f5;fontColor=#333333;strokeColor=#666666;" parent="1" vertex="1">
          <mxGeometry x="1110" y="370" width="120" height="60" as="geometry" />
        </mxCell>
        <mxCell id="gjb1ApcVUccVJ8jpi1Ft-2" value="Public Network" style="text;html=1;strokeColor=none;fillColor=none;align=center;verticalAlign=middle;whiteSpace=wrap;rounded=0;" vertex="1" parent="1">
          <mxGeometry x="-130" y="150" width="160" height="20" as="geometry" />
        </mxCell>
        <mxCell id="gjb1ApcVUccVJ8jpi1Ft-3" value="Official CocoaPods" style="rounded=1;whiteSpace=wrap;html=1;fillColor=#dae8fc;strokeColor=#6c8ebf;" vertex="1" parent="1">
          <mxGeometry x="-80" y="320" width="120" height="60" as="geometry" />
        </mxCell>
        <mxCell id="gjb1ApcVUccVJ8jpi1Ft-4" value="Official NPM" style="rounded=1;whiteSpace=wrap;html=1;fillColor=#dae8fc;strokeColor=#6c8ebf;" vertex="1" parent="1">
          <mxGeometry x="-80" y="180" width="120" height="60" as="geometry" />
        </mxCell>
        <mxCell id="gjb1ApcVUccVJ8jpi1Ft-5" value="Official PyPI" style="rounded=1;whiteSpace=wrap;html=1;fillColor=#dae8fc;strokeColor=#6c8ebf;" vertex="1" parent="1">
          <mxGeometry x="-80" y="250" width="120" height="60" as="geometry" />
        </mxCell>
        <mxCell id="gjb1ApcVUccVJ8jpi1Ft-31" style="edgeStyle=orthogonalEdgeStyle;rounded=0;orthogonalLoop=1;jettySize=auto;html=1;entryX=0.5;entryY=0;entryDx=0;entryDy=0;" edge="1" parent="1" source="gjb1ApcVUccVJ8jpi1Ft-15" target="gjb1ApcVUccVJ8jpi1Ft-29">
          <mxGeometry relative="1" as="geometry">
            <Array as="points">
              <mxPoint x="920" y="50" />
              <mxPoint x="-160" y="50" />
            </Array>
          </mxGeometry>
        </mxCell>
        <mxCell id="gjb1ApcVUccVJ8jpi1Ft-32" style="edgeStyle=orthogonalEdgeStyle;rounded=0;orthogonalLoop=1;jettySize=auto;html=1;entryX=0.5;entryY=0;entryDx=0;entryDy=0;" edge="1" parent="1" source="gjb1ApcVUccVJ8jpi1Ft-15" target="gjb1ApcVUccVJ8jpi1Ft-30">
          <mxGeometry relative="1" as="geometry">
            <Array as="points">
              <mxPoint x="920" y="-10" />
              <mxPoint x="-160" y="-10" />
            </Array>
          </mxGeometry>
        </mxCell>
        <mxCell id="gjb1ApcVUccVJ8jpi1Ft-15" value="Network Proxy with Whitelist" style="shape=process;whiteSpace=wrap;html=1;backgroundOutline=1;" vertex="1" parent="1">
          <mxGeometry x="860" y="250" width="120" height="60" as="geometry" />
        </mxCell>
        <mxCell id="gjb1ApcVUccVJ8jpi1Ft-17" style="edgeStyle=orthogonalEdgeStyle;rounded=0;orthogonalLoop=1;jettySize=auto;html=1;entryX=1;entryY=0.429;entryDx=0;entryDy=0;entryPerimeter=0;" edge="1" parent="1" source="gjb1ApcVUccVJ8jpi1Ft-15" target="-tx-H3IxzFD-GK6V4EGE-16">
          <mxGeometry relative="1" as="geometry" />
        </mxCell>
        <mxCell id="gjb1ApcVUccVJ8jpi1Ft-18" value="" style="rounded=0;whiteSpace=wrap;html=1;" vertex="1" parent="1">
          <mxGeometry x="470" y="510" width="230" height="240" as="geometry" />
        </mxCell>
        <mxCell id="gjb1ApcVUccVJ8jpi1Ft-20" value="Bank Internal Network - Others" style="text;html=1;strokeColor=none;fillColor=none;align=center;verticalAlign=middle;whiteSpace=wrap;rounded=0;" vertex="1" parent="1">
          <mxGeometry x="505" y="530" width="185" height="20" as="geometry" />
        </mxCell>
        <mxCell id="gjb1ApcVUccVJ8jpi1Ft-22" value="GitLab" style="rounded=1;whiteSpace=wrap;html=1;fillColor=#ffe6cc;strokeColor=#d79b00;" vertex="1" parent="1">
          <mxGeometry x="525" y="590" width="120" height="60" as="geometry" />
        </mxCell>
        <mxCell id="gjb1ApcVUccVJ8jpi1Ft-23" value="......" style="text;html=1;strokeColor=none;fillColor=none;align=center;verticalAlign=middle;whiteSpace=wrap;rounded=0;" vertex="1" parent="1">
          <mxGeometry x="550" y="700" width="60" height="30" as="geometry" />
        </mxCell>
        <mxCell id="gjb1ApcVUccVJ8jpi1Ft-24" style="rounded=0;orthogonalLoop=1;jettySize=auto;html=1;entryX=1.008;entryY=0.474;entryDx=0;entryDy=0;entryPerimeter=0;" edge="1" parent="1" source="gjb1ApcVUccVJ8jpi1Ft-15" target="gjb1ApcVUccVJ8jpi1Ft-18">
          <mxGeometry relative="1" as="geometry" />
        </mxCell>
        <mxCell id="gjb1ApcVUccVJ8jpi1Ft-29" value="Google" style="rounded=1;whiteSpace=wrap;html=1;fillColor=#dae8fc;strokeColor=#6c8ebf;" vertex="1" parent="1">
          <mxGeometry x="-220" y="230" width="120" height="60" as="geometry" />
        </mxCell>
        <mxCell id="gjb1ApcVUccVJ8jpi1Ft-30" value="Apple" style="rounded=1;whiteSpace=wrap;html=1;fillColor=#dae8fc;strokeColor=#6c8ebf;" vertex="1" parent="1">
          <mxGeometry x="-220" y="330" width="120" height="60" as="geometry" />
        </mxCell>
        <mxCell id="gjb1ApcVUccVJ8jpi1Ft-33" value="Network Access" style="text;html=1;strokeColor=none;fillColor=none;align=center;verticalAlign=middle;whiteSpace=wrap;rounded=0;" vertex="1" parent="1">
          <mxGeometry x="200" y="20" width="160" height="20" as="geometry" />
        </mxCell>
      </root>
    </mxGraphModel>
  </diagram>
</mxfile>
